<svg xmlns="http://www.w3.org/2000/svg" viewBox="0 0 101.82 104.21"><defs><style>.cls-1{fill:#fff;}</style></defs><title>Asset 1</title><g id="Layer_2" data-name="Layer 2"><g id="Layer_1-2" data-name="Layer 1"><path class="cls-1" d="M2.61,103.22a6.38,6.38,0,0,0,1.22-3.71V74.75A9.3,9.3,0,0,0,0,76.09l1.33-8.3h10.5V99.51a6.16,6.16,0,0,0,1.22,3.71Z"/><path class="cls-1" d="M29.42,103.22a6.08,6.08,0,0,0,1.33-3.71V94.12H16.43v-6l8.46-16.76a4.57,4.57,0,0,0,.06-3.6H40.84a6.5,6.5,0,0,0-1.28,3.77l-.05,15.66H42a6.83,6.83,0,0,0,3.13-.93V95a7.93,7.93,0,0,0-3.19-.92H39.51v5.39a5.74,5.74,0,0,0,1.39,3.71ZM30.75,76.9l-5,10.32h5Z"/><path class="cls-1" d="M48.51,103.22a6.38,6.38,0,0,0,1.22-3.71v-28a6,6,0,0,0-1.27-3.72H69.39V76a6.38,6.38,0,0,0-3.66-1.28H57.85v5.4h5.91a5.75,5.75,0,0,0,2.9-1v8.81a7,7,0,0,0-3-.92H57.85v9.33H67a9.43,9.43,0,0,0,4.17-1.39l-1.33,8.29Z"/><path class="cls-1" d="M74.45,103.22a6.16,6.16,0,0,0,1.22-3.71v-28a5.84,5.84,0,0,0-1.28-3.72H87.15c10.49,0,12.12,6.67,12.17,12.24a10.77,10.77,0,0,1-5.56,9.8,23.25,23.25,0,0,1,3,5.1c1.21,3.19,2.08,5.33,5.1,6.2,0,0-3,2.9-6.09,3.08-4.17.23-5.51-3.89-6-5.22-2.09-5.39-2.2-5.51-3.77-7.6H83.84v8.12a6,6,0,0,0,1.28,3.71ZM85.64,84.43c3.77,0,6.21-.92,6.21-5.33C91.85,75,88.66,75,85.47,75H83.84v9.45Z"/><path class="cls-1" d="M96.33,36.33,75.24,0,44.53,21.9l-9.07-8.56L13.16,28.81,0,59H101.82ZM91.52,50.94H12.37l7.3-16.78,14-9.7-1.2,15.9L72.7,11.77l16,27.48Z"/></g></g></svg>